<svg width="31" height="35" viewBox="0 0 31 35" fill="none" xmlns="http://www.w3.org/2000/svg">
<path d="M15.5 0.893066L14.7875 1.26673L1.6625 7.36985L0.5 7.90958V9.19664C0.5 16.0886 3.0125 22.1502 6.0125 26.5926C7.5125 28.7931 9.125 30.6199 10.7 31.9069C12.275 33.194 13.8125 34.1074 15.5 34.1074C17.225 34.1074 18.725 33.194 20.3 31.9069C21.875 30.6199 23.4875 28.7931 24.9875 26.5926C27.9875 22.1502 30.5 16.0886 30.5 9.19664V7.90958L29.3375 7.36985L16.2125 1.26673L15.5 0.893066ZM15.5 5.41851V29.9556C15.35 29.9556 14.2625 29.6649 13.025 28.6685C11.7875 27.6721 10.3625 26.0529 9.05 24.1431C6.65 20.614 4.775 15.7149 4.475 10.5252L15.5 5.46003V5.41851Z" fill="black"/>
</svg>
