<svg width="28" height="40" viewBox="0 0 28 40" fill="none" xmlns="http://www.w3.org/2000/svg">
<path d="M11.1775 0.928223V5.69024H7.19336C3.58107 5.69024 0.553122 8.4046 0.553122 11.6428V14.0238C0.553122 17.262 2.89049 19.9287 6.34341 20.7382L19.9426 23.8812C20.6863 24.0716 21.7488 25.2622 21.7488 25.9765V28.3575C21.7488 29.0242 21.1644 29.548 20.4207 29.548H7.14024C6.50278 29.548 6.02468 29.3575 5.81219 29.2623V24.786H0.5V29.548C0.5 31.1671 1.56244 32.548 2.83737 33.2624C4.05917 34.0243 5.59971 34.31 7.14024 34.31H11.1244V39.072H16.4366V34.31H20.4207C24.0861 34.31 27.061 31.6433 27.061 28.3575V25.9765C27.061 22.7383 24.7236 20.0716 21.2707 19.262L7.67146 16.1191C6.92775 15.9286 5.86532 14.7381 5.86532 14.0238V11.6428C5.86532 10.9761 6.44966 10.4523 7.19336 10.4523H20.4738C21.0582 10.4523 21.5894 10.6427 21.8019 10.738V15.2143H27.1141V10.4523C27.1141 8.83318 26.0517 7.45219 24.7767 6.73789C23.5549 5.97597 22.0144 5.69024 20.4738 5.69024H16.4897V0.928223L11.1775 0.928223Z" fill="black"/>
</svg>
