<svg width="51" height="62" viewBox="0 0 51 62" fill="none" xmlns="http://www.w3.org/2000/svg">
<path d="M3.64286 54.7222H47.3571C49.369 54.7222 51 56.2395 51 58.1111C51 59.8268 49.6295 61.2447 47.8515 61.4691L47.3571 61.5H3.64286C1.63096 61.5 0 59.9827 0 58.1111C0 56.3955 1.37046 54.9776 3.14854 54.7532L3.64286 54.7222ZM25.0057 0.530937L25.5 0.5C27.3442 0.5 28.8684 1.77492 29.1096 3.42904L29.1429 3.88889V38.6273L40.0967 28.4431C41.39 27.24 43.4138 27.1306 44.8399 28.115L45.2485 28.4431C46.5418 29.6463 46.6593 31.529 45.6012 32.8557L45.2485 33.2357L28.0759 49.2111C26.7826 50.4143 24.7588 50.5236 23.3327 49.5392L22.9241 49.2111L5.75152 33.2357C4.32889 31.9123 4.32889 29.7666 5.75152 28.4431C7.04481 27.24 9.06861 27.1306 10.4947 28.115L10.9033 28.4431L21.8571 38.6363V3.88889C21.8571 2.17323 23.2276 0.755337 25.0057 0.530937Z" fill="#0D0926"/>
</svg>
